<svg width="80" height="60" viewBox="0 0 80 60" fill="none" xmlns="http://www.w3.org/2000/svg">
<path d="M46.1824 54.1591C45.2179 58.2025 43.8722 59.4502 40.4648 59.5137C36.6588 59.5888 35.4518 58.5375 34.187 54.1649C32.5641 54.1649 30.9586 54.24 29.3646 54.1649C26.2517 53.9743 23.6816 52.2183 23.1157 49.8154C23.0977 49.496 23.1476 49.1764 23.2621 48.8778C23.3766 48.5791 23.553 48.308 23.7798 48.0825C23.9704 47.8919 25.1544 48.1922 25.2756 48.5042C26.4942 51.71 29.1451 51.814 31.8711 51.606C36.1391 51.2768 38.8304 48.3598 38.8015 44.0969C38.7473 43.7862 38.6262 43.491 38.4468 43.2317C38.2673 42.9724 38.0336 42.7551 37.7619 42.595C36.3123 41.7633 34.6664 41.2492 33.2803 40.3307C32.4372 39.8346 31.7617 39.0975 31.3408 38.2143C30.9198 37.3311 30.7727 36.3422 30.9182 35.3747C31.2185 33.353 32.8933 32.5847 34.6202 32.0995C38.4589 30.9398 42.5655 31.0207 46.3556 32.3306C49.8555 33.5783 50.6525 37.0209 47.8861 39.5509C46.4712 40.8448 44.5711 41.7055 42.7634 42.4391C41.6776 42.8781 41.4177 43.3517 41.5159 44.403C42.0126 49.8038 46.6329 53.0154 51.848 51.3345C52.9742 50.9764 53.8174 49.7692 54.8339 49.024C55.4114 48.6081 55.9889 48.0305 56.6531 48.302C57.3172 48.5735 57.3346 49.4053 57.196 50.0349C56.7166 52.1894 54.0773 53.9743 51.1607 54.1765C49.5783 54.2515 47.9554 54.1591 46.1824 54.1591ZM40.1356 50.0233C39.483 50.7338 38.8188 51.3519 38.2528 52.0219C37.4154 53.0039 37.0516 54.2862 37.6118 55.3721C37.9756 56.0826 39.3097 56.4177 39.9219 56.4465C41.1347 56.4985 41.7238 56.1231 42.619 55.4241C43.1445 55.014 42.9078 53.4371 42.4977 52.6053C42.0126 51.6002 41.0885 50.9244 40.1356 50.0233ZM35.7868 35.5191C37.889 37.4426 42.9828 37.3444 44.5537 35.4498C42.746 33.5841 37.6695 33.5783 35.7868 35.5191V35.5191Z" fill="#51301F"/>
<path d="M25.0263 21.4837C24.6609 21.4849 24.3085 21.3494 24.0395 21.1042C23.7706 20.8591 23.6049 20.5225 23.5755 20.1615C23.5755 19.8844 23.4065 17.4076 24.9738 15.6871C25.4304 15.2001 25.9843 14.8126 26.6001 14.5492C27.216 14.2858 27.8804 14.1523 28.5512 14.1571C29.2127 14.1145 29.8756 14.2137 30.495 14.4478C31.1143 14.6819 31.6754 15.0455 32.1402 15.5139C33.7774 17.2459 33.6318 19.8325 33.6085 20.1327C33.5791 20.5155 33.3975 20.8711 33.1036 21.1212C32.8096 21.3713 32.4275 21.4955 32.0412 21.4664C31.6549 21.4373 31.296 21.2573 31.0436 20.9661C30.7912 20.6748 30.6659 20.2961 30.6953 19.9133C30.7244 19.5034 30.6545 18.1812 30.0136 17.5057C29.8322 17.3291 29.6124 17.1961 29.3709 17.1171C29.1295 17.038 28.873 17.0149 28.6211 17.0496C28.3474 17.0375 28.0741 17.0827 27.8191 17.1822C27.5642 17.2816 27.3332 17.4332 27.1412 17.627C26.6572 18.2976 26.4225 19.1137 26.477 19.9364C26.5011 20.3178 26.3729 20.6932 26.1199 20.9816C25.867 21.2701 25.5098 21.4483 25.1253 21.4779L25.0263 21.4837Z" fill="#51301F"/>
<path d="M51.0058 8.44153C46.6573 8.44153 43.1303 12.6983 43.1303 17.9544C43.1303 23.2104 46.6573 27.4614 51.0058 27.4614C55.3543 27.4614 58.8871 23.2046 58.8871 17.9544C58.8871 12.7041 55.3601 8.44153 51.0058 8.44153ZM55.9517 20.2589C55.9374 20.4485 55.8861 20.6335 55.8006 20.8032C55.7152 20.9728 55.5974 21.1239 55.4539 21.2478C55.3104 21.3717 55.1441 21.466 54.9644 21.5252C54.7847 21.5845 54.5951 21.6076 54.4065 21.5931C54.2179 21.5787 54.034 21.5271 53.8652 21.4412C53.6965 21.3554 53.5462 21.2369 53.423 21.0926C53.2998 20.9483 53.206 20.7811 53.1471 20.6004C53.0882 20.4197 53.0652 20.2291 53.0796 20.0394C53.0796 19.6293 53.0393 18.3067 52.4075 17.6309C52.2281 17.455 52.0113 17.3224 51.7734 17.2433C51.5355 17.1643 51.2828 17.1408 51.0346 17.1746C50.7639 17.1631 50.4938 17.2086 50.2416 17.308C49.9893 17.4075 49.7605 17.5588 49.5697 17.7522C49.0925 18.4231 48.8611 19.2395 48.9149 20.0625C48.9437 20.4408 48.8239 20.8154 48.5812 21.1059C48.3385 21.3963 47.9922 21.5796 47.6167 21.6162H47.5075C47.1476 21.6161 46.8009 21.4801 46.536 21.2351C46.2712 20.9902 46.1074 20.6541 46.0772 20.2936C46.0772 20.0163 45.9106 17.5385 47.4616 15.8173C47.9113 15.3296 48.4573 14.9416 49.0646 14.678C49.6719 14.4145 50.3272 14.2812 50.9886 14.2867C51.6399 14.2438 52.2928 14.3429 52.9025 14.5772C53.5122 14.8114 54.0645 15.1753 54.5214 15.644C56.1241 17.3537 55.9747 19.9644 55.9517 20.2589Z" fill="#51301F"/>
<path d="M63.776 35.7824C59.1958 27.1095 61.703 8.14193 61.1388 4.95123C58.4741 3.37547 58.5265 1.80871 58.7536 1.44862C58.9808 1.08852 62.5151 -1.05504 68.5757 1.80871C77.264 5.9141 79.5888 10.382 79.3104 13.0446L78.4031 17.5467C75.2809 40.7256 71.9494 44.0822 69.4704 45.1297C68.4603 44.6524 68.3562 44.4553 63.776 35.7824Z" fill="#753D00"/>
<path d="M16.2239 35.7824C20.8041 27.1095 18.297 8.14193 18.8611 4.95123C21.5259 3.37547 21.4734 1.80871 21.2463 1.44862C21.0192 1.08852 17.4848 -1.05504 11.4242 1.80871C2.73588 5.9141 0.411127 10.382 0.689554 13.0446L1.59682 17.5467C4.71901 40.7256 8.05052 44.0822 10.5295 45.1297C11.5396 44.6524 11.6437 44.4553 16.2239 35.7824Z" fill="#753D00"/>
</svg>
