<svg width="706" height="183" viewBox="0 0 706 183" fill="none" xmlns="http://www.w3.org/2000/svg">
<path fill-rule="evenodd" clip-rule="evenodd" d="M696.373 4.12681C693.935 3.77439 691.385 6.63786 690.679 10.5226C690.155 13.4104 690.796 16.0497 692.162 17.3588C693.475 18.7167 696.108 19.3533 698.988 18.8299C702.872 18.1238 705.736 15.5743 705.383 13.1355C705.092 11.1232 702.703 9.81489 699.694 9.81542C699.694 6.80664 698.386 4.41758 696.373 4.12681ZM688.991 22.0901C690.535 20.5465 692.475 19.9835 693.324 20.8324C694.172 21.6814 693.609 23.6209 692.066 25.1644C690.522 26.708 688.583 27.2711 687.734 26.4221C686.885 25.5732 687.448 23.6336 688.991 22.0901ZM688.741 14.6528C687.892 13.8038 685.953 14.3669 684.409 15.9105C682.866 17.454 682.303 19.3935 683.152 20.2425C684 21.0915 685.94 20.5284 687.484 18.9848C689.027 17.4413 689.59 15.5017 688.741 14.6528ZM684.588 6.50873C686.131 4.96517 688.071 4.40209 688.92 5.25105C689.769 6.10002 689.205 8.03953 687.662 9.58309C686.118 11.1266 684.179 11.6897 683.33 10.8408C682.481 9.9918 683.044 8.05228 684.588 6.50873ZM702.724 20.653C701.875 19.804 699.936 20.3671 698.392 21.9106C696.849 23.4542 696.286 25.3937 697.135 26.2427C697.984 27.0916 699.923 26.5286 701.467 24.985C703.01 23.4415 703.573 21.5019 702.724 20.653Z" fill="#F3D2AC"/>
<path fill-rule="evenodd" clip-rule="evenodd" d="M639.098 0.591288C636.659 0.238865 634.11 3.10234 633.404 6.98703C632.879 9.8737 633.52 12.512 634.885 13.8217C636.198 15.1807 638.831 15.8179 641.712 15.2943C645.597 14.5883 648.46 12.0388 648.107 9.59994C647.817 7.58766 645.427 6.2794 642.418 6.2799C642.419 3.27112 641.11 0.882059 639.098 0.591288ZM631.716 18.5546C633.259 17.0111 635.199 16.448 636.048 17.297C636.897 18.1459 636.334 20.0854 634.79 21.629C633.247 23.1725 631.307 23.7356 630.458 22.8867C629.609 22.0377 630.172 20.0982 631.716 18.5546ZM631.466 11.1173C630.617 10.2683 628.677 10.8314 627.134 12.3749C625.59 13.9185 625.027 15.858 625.876 16.707C626.725 17.5559 628.664 16.9929 630.208 15.4493C631.751 13.9057 632.315 11.9662 631.466 11.1173ZM627.312 2.97321C628.856 1.42965 630.795 0.86657 631.644 1.71553C632.493 2.56449 631.93 4.50401 630.386 6.04757C628.843 7.59112 626.903 8.1542 626.054 7.30524C625.205 6.45628 625.768 4.51676 627.312 2.97321ZM645.449 17.1175C644.6 16.2685 642.66 16.8316 641.117 18.3752C639.573 19.9187 639.01 21.8583 639.859 22.7072C640.708 23.5562 642.648 22.9931 644.191 21.4495C645.735 19.906 646.298 17.9665 645.449 17.1175Z" fill="#F3D2AC"/>
<path fill-rule="evenodd" clip-rule="evenodd" d="M649.677 64.7878C651.568 63.6963 653.587 63.6544 654.187 64.6942C654.787 65.734 653.741 67.4616 651.851 68.5531C649.961 69.6446 647.941 69.6865 647.341 68.6467C646.741 67.607 647.787 65.8793 649.677 64.7878ZM661.678 65.5374C659.413 64.5658 656.21 66.6719 654.523 70.2415C653.269 72.8947 653.205 75.6097 654.185 77.2278C655.102 78.8797 657.48 80.1763 660.398 80.4161C664.333 80.7395 667.758 79.018 668.049 76.571C668.289 74.552 666.319 72.6699 663.413 71.8916C664.192 68.9854 663.546 66.3391 661.678 65.5374ZM649.898 80.978C651.789 79.8865 653.808 79.8446 654.408 80.8844C655.008 81.9241 653.962 83.6518 652.072 84.7433C650.182 85.8348 648.162 85.8767 647.562 84.8369C646.962 83.7971 648.008 82.0694 649.898 80.978ZM651.581 73.7293C650.981 72.6896 648.962 72.7315 647.071 73.823C645.181 74.9144 644.135 76.6421 644.735 77.6819C645.336 78.7216 647.355 78.6797 649.245 77.5883C651.136 76.4968 652.182 74.7691 651.581 73.7293ZM663.535 83.1441C662.935 82.1044 660.916 82.1463 659.025 83.2377C657.135 84.3292 656.089 86.0569 656.689 87.0967C657.289 88.1364 659.309 88.0945 661.199 87.0031C663.089 85.9116 664.135 84.1839 663.535 83.1441Z" fill="#F3D2AC"/>
<path fill-rule="evenodd" clip-rule="evenodd" d="M588.098 91.335C590.278 91.2248 592.094 92.1074 592.155 93.3065C592.215 94.5056 590.497 95.567 588.317 95.6773C586.137 95.7875 584.32 94.9049 584.26 93.7058C584.199 92.5067 585.917 91.4453 588.098 91.335ZM598.439 97.4701C596.866 95.5734 593.054 95.9886 589.926 98.3975C587.6 100.189 586.306 102.578 586.443 104.465C586.507 106.352 588.033 108.589 590.52 110.131C593.876 112.212 597.709 112.241 599.083 110.195C600.216 108.507 599.321 105.934 597.088 103.917C599.106 101.685 599.737 99.035 598.439 97.4701ZM580.918 105.848C583.098 105.738 584.914 106.62 584.975 107.819C585.036 109.018 583.317 110.08 581.137 110.19C578.957 110.3 577.141 109.418 577.08 108.219C577.019 107.02 578.737 105.958 580.918 105.848ZM585.719 100.162C585.658 98.9631 583.842 98.0805 581.662 98.1907C579.481 98.301 577.763 99.3624 577.824 100.561C577.884 101.761 579.701 102.643 581.881 102.533C584.061 102.423 585.779 101.361 585.719 100.162ZM592.07 113.989C592.009 112.79 590.193 111.908 588.013 112.018C585.832 112.128 584.114 113.19 584.175 114.389C584.236 115.588 586.052 116.47 588.232 116.36C590.412 116.25 592.13 115.188 592.07 113.989Z" fill="#F3D2AC"/>
<path fill-rule="evenodd" clip-rule="evenodd" d="M595.268 46.5488C597.158 45.4573 599.178 45.4154 599.778 46.4552C600.378 47.4949 599.332 49.2226 597.442 50.3141C595.551 51.4056 593.532 51.4475 592.932 50.4077C592.332 49.3679 593.377 47.6402 595.268 46.5488ZM607.269 47.2984C605.004 46.3268 601.8 48.4329 600.113 52.0025C598.859 54.6557 598.796 57.3707 599.776 58.9888C600.692 60.6407 603.071 61.9373 605.988 62.1771C609.923 62.5005 613.349 60.779 613.64 58.332C613.879 56.313 611.91 54.4309 609.004 53.6526C609.782 50.7464 609.137 48.1001 607.269 47.2984ZM595.489 62.739C597.379 61.6475 599.398 61.6056 599.999 62.6454C600.599 63.6851 599.553 65.4128 597.663 66.5043C595.772 67.5957 593.753 67.6376 593.153 66.5979C592.552 65.5581 593.598 63.8304 595.489 62.739ZM597.172 55.4903C596.572 54.4506 594.553 54.4925 592.662 55.5839C590.772 56.6754 589.726 58.4031 590.326 59.4429C590.926 60.4826 592.946 60.4407 594.836 59.3492C596.727 58.2578 597.772 56.5301 597.172 55.4903ZM609.126 64.9051C608.525 63.8654 606.506 63.9073 604.616 64.9987C602.725 66.0902 601.679 67.8179 602.28 68.8577C602.88 69.8974 604.899 69.8555 606.79 68.764C608.68 67.6726 609.726 65.9449 609.126 64.9051Z" fill="#F3D2AC"/>
<path fill-rule="evenodd" clip-rule="evenodd" d="M547.974 50.3092C550.154 50.1989 551.971 51.0816 552.031 52.2807C552.092 53.4797 550.374 54.5412 548.194 54.6514C546.013 54.7617 544.197 53.879 544.136 52.6799C544.076 51.4808 545.794 50.4194 547.974 50.3092ZM558.315 56.4443C556.742 54.5476 552.931 54.9627 549.802 57.3716C547.476 59.1627 546.183 61.5518 546.319 63.439C546.383 65.3266 547.91 67.5634 550.397 69.1056C553.752 71.1864 557.586 71.2147 558.959 69.1689C560.093 67.4808 559.197 64.9082 556.964 62.891C558.982 60.6589 559.613 58.0092 558.315 56.4443ZM540.794 64.822C542.974 64.7117 544.791 65.5944 544.851 66.7935C544.912 67.9926 543.194 69.054 541.014 69.1642C538.834 69.2745 537.017 68.3918 536.956 67.1927C536.896 65.9937 538.614 64.9322 540.794 64.822ZM545.595 59.1364C545.535 57.9373 543.718 57.0546 541.538 57.1649C539.358 57.2751 537.64 58.3366 537.7 59.5356C537.761 60.7347 539.577 61.6174 541.758 61.5071C543.938 61.3969 545.656 60.3355 545.595 59.1364ZM551.946 72.9635C551.886 71.7644 550.069 70.8818 547.889 70.992C545.709 71.1023 543.991 72.1637 544.051 73.3628C544.112 74.5619 545.929 75.4445 548.109 75.3343C550.289 75.224 552.007 74.1626 551.946 72.9635Z" fill="#F3D2AC"/>
<path fill-rule="evenodd" clip-rule="evenodd" d="M511.856 93.2038C514.039 93.2038 515.809 94.1771 515.809 95.3777C515.809 96.5783 514.039 97.5516 511.856 97.5516C509.673 97.5516 507.904 96.5783 507.904 95.3777C507.904 94.1771 509.673 93.2038 511.856 93.2038ZM521.874 99.8533C520.399 97.8795 516.572 98.1017 513.326 100.349C510.912 102.021 509.5 104.341 509.54 106.233C509.509 108.121 510.92 110.433 513.326 112.099C516.573 114.346 520.4 114.568 521.875 112.594C523.092 110.966 522.328 108.351 520.2 106.224C522.328 104.096 523.092 101.482 521.874 99.8533ZM503.953 107.335C506.135 107.335 507.905 108.309 507.905 109.509C507.905 110.71 506.135 111.683 503.953 111.683C501.77 111.683 500 110.71 500 109.509C500 108.309 501.77 107.335 503.953 107.335ZM509.035 101.9C509.035 100.699 507.265 99.7256 505.082 99.7256C502.899 99.7256 501.13 100.699 501.13 101.9C501.13 103.1 502.899 104.073 505.082 104.073C507.265 104.073 509.035 103.1 509.035 101.9ZM514.679 116.03C514.679 114.829 512.91 113.856 510.727 113.856C508.544 113.856 506.774 114.829 506.774 116.03C506.774 117.23 508.544 118.204 510.727 118.204C512.91 118.204 514.679 117.23 514.679 116.03Z" fill="#F3D2AC"/>
<path fill-rule="evenodd" clip-rule="evenodd" d="M473.856 50.2038C476.039 50.2038 477.809 51.1771 477.809 52.3777C477.809 53.5783 476.039 54.5516 473.856 54.5516C471.673 54.5516 469.904 53.5783 469.904 52.3777C469.904 51.1771 471.673 50.2038 473.856 50.2038ZM483.874 56.8533C482.399 54.8795 478.572 55.1017 475.326 57.3495C472.912 59.0207 471.5 61.3412 471.54 63.2328C471.509 65.1213 472.92 67.4326 475.326 69.0986C478.573 71.3462 482.4 71.5681 483.875 69.5942C485.092 67.9656 484.328 65.351 482.2 63.2237C484.328 61.0963 485.092 58.4818 483.874 56.8533ZM465.953 64.3354C468.135 64.3354 469.905 65.3087 469.905 66.5093C469.905 67.7099 468.135 68.6832 465.953 68.6832C463.77 68.6832 462 67.7099 462 66.5093C462 65.3087 463.77 64.3354 465.953 64.3354ZM471.035 58.8995C471.035 57.6989 469.265 56.7256 467.082 56.7256C464.899 56.7256 463.13 57.6989 463.13 58.8995C463.13 60.1002 464.899 61.0735 467.082 61.0735C469.265 61.0735 471.035 60.1002 471.035 58.8995ZM476.679 73.0298C476.679 71.8292 474.91 70.8559 472.727 70.8559C470.544 70.8559 468.774 71.8292 468.774 73.0298C468.774 74.2304 470.544 75.2037 472.727 75.2037C474.91 75.2037 476.679 74.2304 476.679 73.0298Z" fill="#F3D2AC"/>
<path fill-rule="evenodd" clip-rule="evenodd" d="M434.856 94.2038C437.039 94.2038 438.809 95.1771 438.809 96.3777C438.809 97.5783 437.039 98.5516 434.856 98.5516C432.673 98.5516 430.904 97.5783 430.904 96.3777C430.904 95.1771 432.673 94.2038 434.856 94.2038ZM444.874 100.853C443.399 98.8795 439.572 99.1017 436.326 101.349C433.912 103.021 432.5 105.341 432.54 107.233C432.509 109.121 433.92 111.433 436.326 113.099C439.573 115.346 443.4 115.568 444.875 113.594C446.092 111.966 445.328 109.351 443.2 107.224C445.328 105.096 446.092 102.482 444.874 100.853ZM426.953 108.335C429.135 108.335 430.905 109.309 430.905 110.509C430.905 111.71 429.135 112.683 426.953 112.683C424.77 112.683 423 111.71 423 110.509C423 109.309 424.77 108.335 426.953 108.335ZM432.035 102.9C432.035 101.699 430.265 100.726 428.082 100.726C425.899 100.726 424.13 101.699 424.13 102.9C424.13 104.1 425.899 105.073 428.082 105.073C430.265 105.073 432.035 104.1 432.035 102.9ZM437.679 117.03C437.679 115.829 435.91 114.856 433.727 114.856C431.544 114.856 429.774 115.829 429.774 117.03C429.774 118.23 431.544 119.204 433.727 119.204C435.91 119.204 437.679 118.23 437.679 117.03Z" fill="#F3D2AC"/>
<path fill-rule="evenodd" clip-rule="evenodd" d="M395.856 51.2038C398.039 51.2038 399.809 52.1771 399.809 53.3777C399.809 54.5783 398.039 55.5516 395.856 55.5516C393.673 55.5516 391.904 54.5783 391.904 53.3777C391.904 52.1771 393.673 51.2038 395.856 51.2038ZM405.874 57.8533C404.399 55.8795 400.572 56.1017 397.326 58.3495C394.912 60.0207 393.5 62.3412 393.54 64.2328C393.509 66.1213 394.92 68.4326 397.326 70.0986C400.573 72.3462 404.4 72.5681 405.875 70.5942C407.092 68.9656 406.328 66.351 404.2 64.2237C406.328 62.0963 407.092 59.4818 405.874 57.8533ZM387.953 65.3354C390.135 65.3354 391.905 66.3087 391.905 67.5093C391.905 68.7099 390.135 69.6832 387.953 69.6832C385.77 69.6832 384 68.7099 384 67.5093C384 66.3087 385.77 65.3354 387.953 65.3354ZM393.035 59.8995C393.035 58.6989 391.265 57.7256 389.082 57.7256C386.899 57.7256 385.13 58.6989 385.13 59.8995C385.13 61.1002 386.899 62.0735 389.082 62.0735C391.265 62.0735 393.035 61.1002 393.035 59.8995ZM398.679 74.0298C398.679 72.8292 396.91 71.8559 394.727 71.8559C392.544 71.8559 390.774 72.8292 390.774 74.0298C390.774 75.2304 392.544 76.2037 394.727 76.2037C396.91 76.2037 398.679 75.2304 398.679 74.0298Z" fill="#F3D2AC"/>
<path fill-rule="evenodd" clip-rule="evenodd" d="M253.856 93.2038C256.039 93.2038 257.809 94.1771 257.809 95.3777C257.809 96.5783 256.039 97.5516 253.856 97.5516C251.673 97.5516 249.904 96.5783 249.904 95.3777C249.904 94.1771 251.673 93.2038 253.856 93.2038ZM263.874 99.8533C262.399 97.8795 258.572 98.1017 255.326 100.349C252.912 102.021 251.5 104.341 251.54 106.233C251.509 108.121 252.92 110.433 255.326 112.099C258.573 114.346 262.4 114.568 263.875 112.594C265.092 110.966 264.328 108.351 262.2 106.224C264.328 104.096 265.092 101.482 263.874 99.8533ZM245.953 107.335C248.135 107.335 249.905 108.309 249.905 109.509C249.905 110.71 248.135 111.683 245.953 111.683C243.77 111.683 242 110.71 242 109.509C242 108.309 243.77 107.335 245.953 107.335ZM251.035 101.9C251.035 100.699 249.265 99.7256 247.082 99.7256C244.899 99.7256 243.13 100.699 243.13 101.9C243.13 103.1 244.899 104.073 247.082 104.073C249.265 104.073 251.035 103.1 251.035 101.9ZM256.679 116.03C256.679 114.829 254.91 113.856 252.727 113.856C250.544 113.856 248.774 114.829 248.774 116.03C248.774 117.23 250.544 118.204 252.727 118.204C254.91 118.204 256.679 117.23 256.679 116.03Z" fill="#F3D2AC"/>
<path fill-rule="evenodd" clip-rule="evenodd" d="M215.856 50.2038C218.039 50.2038 219.809 51.1771 219.809 52.3777C219.809 53.5783 218.039 54.5516 215.856 54.5516C213.673 54.5516 211.904 53.5783 211.904 52.3777C211.904 51.1771 213.673 50.2038 215.856 50.2038ZM225.874 56.8533C224.399 54.8795 220.572 55.1017 217.326 57.3495C214.912 59.0207 213.5 61.3412 213.54 63.2328C213.509 65.1213 214.92 67.4326 217.326 69.0986C220.573 71.3462 224.4 71.5681 225.875 69.5942C227.092 67.9656 226.328 65.351 224.2 63.2237C226.328 61.0963 227.092 58.4818 225.874 56.8533ZM207.953 64.3354C210.135 64.3354 211.905 65.3087 211.905 66.5093C211.905 67.7099 210.135 68.6832 207.953 68.6832C205.77 68.6832 204 67.7099 204 66.5093C204 65.3087 205.77 64.3354 207.953 64.3354ZM213.035 58.8995C213.035 57.6989 211.265 56.7256 209.082 56.7256C206.899 56.7256 205.13 57.6989 205.13 58.8995C205.13 60.1002 206.899 61.0735 209.082 61.0735C211.265 61.0735 213.035 60.1002 213.035 58.8995ZM218.679 73.0298C218.679 71.8292 216.91 70.8559 214.727 70.8559C212.544 70.8559 210.774 71.8292 210.774 73.0298C210.774 74.2304 212.544 75.2037 214.727 75.2037C216.91 75.2037 218.679 74.2304 218.679 73.0298Z" fill="#F3D2AC"/>
<path fill-rule="evenodd" clip-rule="evenodd" d="M163.856 93.2038C166.039 93.2038 167.809 94.1771 167.809 95.3777C167.809 96.5783 166.039 97.5516 163.856 97.5516C161.673 97.5516 159.904 96.5783 159.904 95.3777C159.904 94.1771 161.673 93.2038 163.856 93.2038ZM173.874 99.8533C172.399 97.8795 168.572 98.1017 165.326 100.349C162.912 102.021 161.5 104.341 161.54 106.233C161.509 108.121 162.92 110.433 165.326 112.099C168.573 114.346 172.4 114.568 173.875 112.594C175.092 110.966 174.328 108.351 172.2 106.224C174.328 104.096 175.092 101.482 173.874 99.8533ZM155.953 107.335C158.135 107.335 159.905 108.309 159.905 109.509C159.905 110.71 158.135 111.683 155.953 111.683C153.77 111.683 152 110.71 152 109.509C152 108.309 153.77 107.335 155.953 107.335ZM161.035 101.9C161.035 100.699 159.265 99.7256 157.082 99.7256C154.899 99.7256 153.13 100.699 153.13 101.9C153.13 103.1 154.899 104.073 157.082 104.073C159.265 104.073 161.035 103.1 161.035 101.9ZM166.679 116.03C166.679 114.829 164.91 113.856 162.727 113.856C160.544 113.856 158.774 114.829 158.774 116.03C158.774 117.23 160.544 118.204 162.727 118.204C164.91 118.204 166.679 117.23 166.679 116.03Z" fill="#F3D2AC"/>
<path fill-rule="evenodd" clip-rule="evenodd" d="M125.856 50.2038C128.039 50.2038 129.809 51.1771 129.809 52.3777C129.809 53.5783 128.039 54.5516 125.856 54.5516C123.673 54.5516 121.904 53.5783 121.904 52.3777C121.904 51.1771 123.673 50.2038 125.856 50.2038ZM135.874 56.8533C134.399 54.8795 130.572 55.1017 127.326 57.3495C124.912 59.0207 123.5 61.3412 123.54 63.2328C123.509 65.1213 124.92 67.4326 127.326 69.0986C130.573 71.3462 134.4 71.5681 135.875 69.5942C137.092 67.9656 136.328 65.351 134.2 63.2237C136.328 61.0963 137.092 58.4818 135.874 56.8533ZM117.953 64.3354C120.135 64.3354 121.905 65.3087 121.905 66.5093C121.905 67.7099 120.135 68.6832 117.953 68.6832C115.77 68.6832 114 67.7099 114 66.5093C114 65.3087 115.77 64.3354 117.953 64.3354ZM123.035 58.8995C123.035 57.6989 121.265 56.7256 119.082 56.7256C116.899 56.7256 115.13 57.6989 115.13 58.8995C115.13 60.1002 116.899 61.0735 119.082 61.0735C121.265 61.0735 123.035 60.1002 123.035 58.8995ZM128.679 73.0298C128.679 71.8292 126.91 70.8559 124.727 70.8559C122.544 70.8559 120.774 71.8292 120.774 73.0298C120.774 74.2304 122.544 75.2037 124.727 75.2037C126.91 75.2037 128.679 74.2304 128.679 73.0298Z" fill="#F3D2AC"/>
<path fill-rule="evenodd" clip-rule="evenodd" d="M94.6768 109.788C96.5673 108.696 98.5864 108.654 99.1868 109.694C99.7871 110.734 98.7412 112.462 96.8507 113.553C94.9603 114.645 92.9411 114.686 92.3408 113.647C91.7405 112.607 92.7864 110.879 94.6768 109.788ZM106.678 110.537C104.413 109.566 101.209 111.672 99.5222 115.241C98.2669 117.897 98.2046 120.615 99.1876 122.233C100.106 123.882 102.483 125.177 105.397 125.416C109.333 125.74 112.758 124.018 113.049 121.571C113.289 119.552 111.319 117.67 108.412 116.892C109.191 113.985 108.546 111.339 106.678 110.537ZM94.898 125.978C96.7885 124.886 98.8076 124.845 99.4079 125.884C100.008 126.924 98.9624 128.652 97.0719 129.743C95.1814 130.835 93.1623 130.877 92.562 129.837C91.9617 128.797 93.0075 127.069 94.898 125.978ZM96.581 118.729C95.9807 117.69 93.9616 117.731 92.0711 118.823C90.1806 119.914 89.1348 121.642 89.7351 122.682C90.3354 123.722 92.3545 123.68 94.245 122.588C96.1355 121.497 97.1813 119.769 96.581 118.729ZM108.535 128.144C107.935 127.104 105.915 127.146 104.025 128.238C102.135 129.329 101.089 131.057 101.689 132.097C102.289 133.136 104.308 133.094 106.199 132.003C108.089 130.912 109.135 129.184 108.535 128.144Z" fill="#F3D2AC"/>
<path fill-rule="evenodd" clip-rule="evenodd" d="M40.2679 91.5488C42.1583 90.4573 44.1775 90.4154 44.7778 91.4551C45.3781 92.4949 44.3322 94.2226 42.4418 95.3141C40.5513 96.4055 38.5322 96.4474 37.9318 95.4077C37.3315 94.3679 38.3774 92.6402 40.2679 91.5488ZM52.2686 92.2984C50.004 91.3267 46.8005 93.4328 45.1133 97.0025C43.8592 99.6557 43.7958 102.371 44.7758 103.989C45.6922 105.641 48.0707 106.937 50.9883 107.177C54.9233 107.5 58.3489 105.779 58.6396 103.332C58.8794 101.313 56.9101 99.4308 54.0035 98.6526C54.7825 95.7464 54.137 93.1001 52.2686 92.2984ZM40.4888 107.739C42.3793 106.647 44.3985 106.606 44.9988 107.645C45.5991 108.685 44.5532 110.413 42.6627 111.504C40.7723 112.596 38.7531 112.638 38.1528 111.598C37.5525 110.558 38.5984 108.83 40.4888 107.739ZM42.1721 100.49C41.5718 99.4505 39.5526 99.4925 37.6622 100.584C35.7717 101.675 34.7258 103.403 35.3261 104.443C35.9264 105.483 37.9456 105.441 39.8361 104.349C41.7265 103.258 42.7724 101.53 42.1721 100.49ZM54.1257 109.905C53.5254 108.865 51.5062 108.907 49.6158 109.999C47.7253 111.09 46.6794 112.818 47.2797 113.858C47.8801 114.897 49.8992 114.855 51.7897 113.764C53.6801 112.673 54.726 110.945 54.1257 109.905Z" fill="#F3D2AC"/>
<path fill-rule="evenodd" clip-rule="evenodd" d="M343.856 93.2038C346.039 93.2038 347.809 94.1771 347.809 95.3777C347.809 96.5783 346.039 97.5516 343.856 97.5516C341.673 97.5516 339.904 96.5783 339.904 95.3777C339.904 94.1771 341.673 93.2038 343.856 93.2038ZM353.874 99.8533C352.399 97.8795 348.572 98.1017 345.326 100.349C342.912 102.021 341.5 104.341 341.54 106.233C341.509 108.121 342.92 110.433 345.326 112.099C348.573 114.346 352.4 114.568 353.875 112.594C355.092 110.966 354.328 108.351 352.2 106.224C354.328 104.096 355.092 101.482 353.874 99.8533ZM335.953 107.335C338.135 107.335 339.905 108.309 339.905 109.509C339.905 110.71 338.135 111.683 335.953 111.683C333.77 111.683 332 110.71 332 109.509C332 108.309 333.77 107.335 335.953 107.335ZM341.035 101.9C341.035 100.699 339.265 99.7256 337.082 99.7256C334.899 99.7256 333.13 100.699 333.13 101.9C333.13 103.1 334.899 104.073 337.082 104.073C339.265 104.073 341.035 103.1 341.035 101.9ZM346.679 116.03C346.679 114.829 344.91 113.856 342.727 113.856C340.544 113.856 338.774 114.829 338.774 116.03C338.774 117.23 340.544 118.204 342.727 118.204C344.91 118.204 346.679 117.23 346.679 116.03Z" fill="#F3D2AC"/>
<path fill-rule="evenodd" clip-rule="evenodd" d="M72.1598 159.523C69.7209 159.171 67.1716 162.034 66.4658 165.919C65.9411 168.807 66.5828 171.446 67.9487 172.755C69.2616 174.113 71.8943 174.75 74.774 174.226C78.6587 173.52 81.522 170.971 81.1694 168.532C80.8785 166.52 78.4892 165.211 75.4802 165.212C75.4804 162.203 74.172 159.814 72.1598 159.523ZM64.7779 177.487C66.3214 175.943 68.2609 175.38 69.1099 176.229C69.9589 177.078 69.3958 179.018 67.8522 180.561C66.3087 182.105 64.3691 182.668 63.5202 181.819C62.6712 180.97 63.2343 179.03 64.7779 177.487ZM64.5276 170.049C63.6787 169.2 61.7391 169.763 60.1956 171.307C58.652 172.851 58.0889 174.79 58.9379 175.639C59.7869 176.488 61.7264 175.925 63.2699 174.381C64.8135 172.838 65.3766 170.898 64.5276 170.049ZM60.3741 161.905C61.9176 160.362 63.8571 159.799 64.7061 160.648C65.5551 161.497 64.992 163.436 63.4484 164.98C61.9049 166.523 59.9653 167.086 59.1164 166.237C58.2674 165.388 58.8305 163.449 60.3741 161.905ZM78.5108 176.05C77.6618 175.201 75.7223 175.764 74.1787 177.307C72.6352 178.851 72.0721 180.79 72.9211 181.639C73.77 182.488 75.7095 181.925 77.2531 180.382C78.7967 178.838 79.3597 176.899 78.5108 176.05Z" fill="#F3D2AC"/>
<path fill-rule="evenodd" clip-rule="evenodd" d="M304.856 50.2038C307.039 50.2038 308.809 51.1771 308.809 52.3777C308.809 53.5783 307.039 54.5516 304.856 54.5516C302.673 54.5516 300.904 53.5783 300.904 52.3777C300.904 51.1771 302.673 50.2038 304.856 50.2038ZM314.874 56.8533C313.399 54.8795 309.572 55.1017 306.326 57.3495C303.912 59.0207 302.5 61.3412 302.54 63.2328C302.509 65.1213 303.92 67.4326 306.326 69.0986C309.573 71.3462 313.4 71.5681 314.875 69.5942C316.092 67.9656 315.328 65.351 313.2 63.2237C315.328 61.0963 316.092 58.4818 314.874 56.8533ZM296.953 64.3354C299.135 64.3354 300.905 65.3087 300.905 66.5093C300.905 67.7099 299.135 68.6832 296.953 68.6832C294.77 68.6832 293 67.7099 293 66.5093C293 65.3087 294.77 64.3354 296.953 64.3354ZM302.035 58.8995C302.035 57.6989 300.265 56.7256 298.082 56.7256C295.899 56.7256 294.13 57.6989 294.13 58.8995C294.13 60.1002 295.899 61.0735 298.082 61.0735C300.265 61.0735 302.035 60.1002 302.035 58.8995ZM307.679 73.0298C307.679 71.8292 305.91 70.8559 303.727 70.8559C301.544 70.8559 299.774 71.8292 299.774 73.0298C299.774 74.2304 301.544 75.2037 303.727 75.2037C305.91 75.2037 307.679 74.2304 307.679 73.0298Z" fill="#F3D2AC"/>
<path fill-rule="evenodd" clip-rule="evenodd" d="M14.1774 156.695C11.7385 156.343 9.18919 159.206 8.48336 163.091C7.95866 165.979 8.60041 168.618 9.96626 169.927C11.2792 171.285 13.9119 171.921 16.7916 171.398C20.6763 170.692 23.5396 168.143 23.187 165.704C22.8961 163.691 20.5068 162.383 17.4978 162.384C17.498 159.375 16.1896 156.986 14.1774 156.695ZM6.79544 174.658C8.33899 173.115 10.2785 172.552 11.1275 173.401C11.9764 174.25 11.4134 176.189 9.8698 177.733C8.32625 179.276 6.38673 179.839 5.53776 178.99C4.6888 178.141 5.25188 176.202 6.79544 174.658ZM6.5452 167.221C5.69624 166.372 3.75672 166.935 2.21316 168.479C0.669608 170.022 0.106528 171.962 0.95549 172.811C1.80445 173.66 3.74397 173.097 5.28753 171.553C6.83108 170.009 7.39416 168.07 6.5452 167.221ZM2.39163 159.077C3.93519 157.533 5.8747 156.97 6.72367 157.819C7.57263 158.668 7.00955 160.608 5.46599 162.151C3.92244 163.695 1.98292 164.258 1.13396 163.409C0.284995 162.56 0.848075 160.62 2.39163 159.077ZM20.5284 173.221C19.6794 172.372 17.7399 172.935 16.1963 174.479C14.6528 176.022 14.0897 177.962 14.9386 178.811C15.7876 179.66 17.7271 179.097 19.2707 177.553C20.8142 176.01 21.3773 174.07 20.5284 173.221Z" fill="#F3D2AC"/>
</svg>
